<svg version="1.2" xmlns="http://www.w3.org/2000/svg" viewBox="0 0 778 320" width="778" height="320">
	<title>LOGO-svg</title>
	<style>
		.s0 { fill: #fff } 
		.s1 { fill: #d63930 } 
	</style>
	<g id="Layer">
		<path id="Layer" class="s0" d="m655 0h36h36v24.3c0 17.6 0.3 24.6 1.2 25.5c0.8 0.8 6.4 1.2 18.5 1.2h17.3v26v26l-18.2 0.2l-18.3 0.3v25.5c0 27.7 0.1 28.5 6 34c2.4 2.2 3.5 2.5 10.8 2.5c5.9 0 9.2-0.5 11.6-1.8c1.9-0.9 3.6-1.5 3.8-1.3c0.9 0.9 17.2 49 16.8 49.7c-0.7 1.1-14.2 5.6-21 7.1c-3.6 0.7-13 1.2-23.5 1.2c-14.7 0-19-0.4-26.5-2.2c-22.4-5.6-37.6-17.6-44.5-35.3c-5-12.5-5.3-15-5.9-47.9l-0.6-31.5l-12.2-0.3l-12.3-0.3v-25.9v-25.9l12.3-0.3l12.2-0.3l0.3-25.3z" />
		<path id="Layer" fill-rule="evenodd" class="s1" d="m553.7 36.1c38.9 16.3 62.9 58.5 56.7 100.1c-3.7 24.8-22.7 66.9-54.2 120.3c-12.4 21-38 60.5-39.1 60.5c-0.6 0-15-21.3-26.3-39c-22.6-35.4-46-79.2-56.2-105.3c-9.7-25-12.1-36-11.3-53.6c0.8-18.9 4.9-32 15.1-47.6c13.8-21.1 34.9-35.4 60.7-41c15.9-3.4 38.4-1.1 54.6 5.6zm-62.7 57.9c-16.9 16.5-15.3 43.8 3.5 57.9c15.4 11.5 35 10.5 49.5-2.6c13.2-11.9 15.9-33.1 6.1-48.5c-4.2-6.6-13.2-13.4-21-15.8c-13.8-4.3-27.8-1-38.1 9z" />
		<path id="Layer" class="s0" d="m113.5 38.5c10.4 0.7 26.6 3.7 36.3 6.6c8.3 2.6 16.2 5.9 16.2 6.9c0 0.8-18.9 46.2-19.4 46.8c-0.2 0.2-2.6-0.8-5.3-2.2c-24.5-12.3-68.8-13.8-70.1-2.2c-0.7 5.9 3.5 7.7 24.4 10.6c43 5.7 58.8 12.1 69.5 27.7c6.4 9.3 9.5 26.3 7 38.5c-4.2 20-22.5 36.7-48.5 44.3c-32.2 9.3-79 6.3-112.9-7.2c-4.8-1.9-8.9-3.9-9.2-4.3c-0.4-0.6 6.1-16.6 18-44.7l1.4-3.2l4.3 2.4c6.3 3.5 24 9.2 34.3 11c12.7 2.3 28.8 3 35.7 1.6c9.8-2.1 13.6-7.3 8.6-11.8c-3.2-2.8-7.9-3.9-27.3-6.3c-37.6-4.7-53.3-11-64.2-25.5c-7.1-9.5-10.5-24.8-8.3-37.4c5-29.7 34-49 78-52.1c10.3-0.7 13.5-0.6 31.5 0.5z" />
		<path id="Layer" fill-rule="evenodd" class="s0" d="m398.3 107c3.3 16.5 3 35.7-0.9 50.5c-0.9 3.3-4.1 11.2-7.2 17.5c-5.1 10.6-6.4 12.3-15.6 21.5c-11.5 11.4-19.8 16.4-35.1 21.1c-8.1 2.5-10.6 2.7-24 2.8c-11 0-16.6-0.4-21.2-1.7c-7.3-1.9-16.7-6.5-21-10.1c-1.7-1.4-3.4-2.6-3.7-2.6c-0.3 0-0.6 16.9-0.6 37.5v37.5h-73v-240h70v6.5c0 6.5 0.7 7.7 3 5c5.3-6.3 22.6-13.3 36-14.5c47-4.2 84.2 23.4 93.3 69zm-113.7-10.5c-5.2 2.5-12.1 10.7-14.3 16.8c-1.3 3.9-1.8 8.2-1.8 16.7c0 10.3 0.3 12.1 2.6 17c3.6 7.6 7.1 11.5 13.3 14.5c15 7.3 31 2 38.6-12.9c3.4-6.7 3.5-7.2 3.5-18.5c0-9.1-0.4-12.8-2-17c-2.3-6.3-9-14.1-14-16.5c-7.6-3.6-18.4-3.6-25.9-0.1z" />
	</g>
</svg>